<!--
<svg viewBox="0 0 141.95 67.4493" width="62" height="29.460067629446986" xmlns="http://www.w3.org/2000/svg" xmlns:xlink="http://www.w3.org/1999/xlink" preserveAspectRatio="none"><defs></defs><style>.aIptOCySncolors-0j_zJOUYe6 {fill:#000000;fill-opacity:1;}</style><g opacity="1" transform="rotate(0 0 0)">
        <svg width="141.95" height="67.4493" x="0" y="0" version="1.1" preserveAspectRatio="none" viewBox="12.330944061279297 33.25736999511719 73.59506225585938 34.969627380371094">
          <g transform="matrix(1 0 0 1 0 0)" class="aIptOCySncolors-0j_zJOUYe6"><path d="M85.622,47.052c-0.616-2.332-2.594-4.614-5.199-5.435c-6.91-2.179-13.821-4.356-20.729-6.532  c-5.803-1.829-8.594,1.595-14.709,2.205c-4.532,0.451-14.221-8.782-14.221-0.711c0,1.217-0.489,5.646-0.483,9.627  c5.999-1.62,9.661-5.063,16.244-2.701c8.833,3.169,21.408,6.695,30.511,9.893l1.565,0.004c0.366-0.018,0.734-0.032,1.095-0.065  h3.355c1.587,0,2.875-0.975,2.875-2.18v-2.133v-0.958v-0.057C85.926,47.662,85.811,47.341,85.622,47.052z"></path><path d="M75.749,60.951c-0.708-2.672-2.973-5.287-5.959-6.229c-7.918-2.496-15.837-4.99-23.754-7.484  c-6.647-2.095-9.846,1.828-16.854,2.526c-5.194,0.516-16.295-10.062-16.295-0.814c0,1.617-0.758,8.186-0.504,13.163l0.023,1.097  v2.443c0,0.936,0.679,1.736,1.676,2.165c0.091,0.05,0.186,0.088,0.284,0.116c0.039,0.014,0.079,0.025,0.118,0.037  c0.004,0.002,0.007,0.002,0.01,0.004c0.003,0,0.003,0,0.005,0c0.374,0.11,0.776,0.176,1.202,0.176h23.573l28.427,0.076  c0.42-0.021,0.841-0.038,1.254-0.076h3.846c1.818,0,3.295-1.115,3.295-2.498v-2.443v-1.097v-0.065  C76.097,61.65,75.963,61.283,75.749,60.951z"></path></g>
        </svg>
      </g></svg>

  -->

<svg width="141.95" height="67.4493" x="0" y="0" version="1.1" preserveAspectRatio="none" viewBox="12.330944061279297 33.25736999511719 73.59506225585938 34.969627380371094">
<g transform="matrix(1 0 0 1 0 0)" class="aIptOCySncolors-0j_zJOUYe6"><path d="M85.622,47.052c-0.616-2.332-2.594-4.614-5.199-5.435c-6.91-2.179-13.821-4.356-20.729-6.532  c-5.803-1.829-8.594,1.595-14.709,2.205c-4.532,0.451-14.221-8.782-14.221-0.711c0,1.217-0.489,5.646-0.483,9.627  c5.999-1.62,9.661-5.063,16.244-2.701c8.833,3.169,21.408,6.695,30.511,9.893l1.565,0.004c0.366-0.018,0.734-0.032,1.095-0.065  h3.355c1.587,0,2.875-0.975,2.875-2.18v-2.133v-0.958v-0.057C85.926,47.662,85.811,47.341,85.622,47.052z"></path><path d="M75.749,60.951c-0.708-2.672-2.973-5.287-5.959-6.229c-7.918-2.496-15.837-4.99-23.754-7.484  c-6.647-2.095-9.846,1.828-16.854,2.526c-5.194,0.516-16.295-10.062-16.295-0.814c0,1.617-0.758,8.186-0.504,13.163l0.023,1.097  v2.443c0,0.936,0.679,1.736,1.676,2.165c0.091,0.05,0.186,0.088,0.284,0.116c0.039,0.014,0.079,0.025,0.118,0.037  c0.004,0.002,0.007,0.002,0.01,0.004c0.003,0,0.003,0,0.005,0c0.374,0.11,0.776,0.176,1.202,0.176h23.573l28.427,0.076  c0.42-0.021,0.841-0.038,1.254-0.076h3.846c1.818,0,3.295-1.115,3.295-2.498v-2.443v-1.097v-0.065  C76.097,61.65,75.963,61.283,75.749,60.951z"></path></g>
</svg>